<svg width="26" height="23" viewBox="0 0 26 23" fill="none" xmlns="http://www.w3.org/2000/svg">
<path d="M1 3.625H1.02559M1.02559 3.625H24.9745M1.02559 3.625C1 4.03762 1 4.54626 1 5.20026V17.8003C1 19.2704 1 20.0044 1.29065 20.566C1.54631 21.0599 1.95396 21.4625 2.45573 21.7142C3.02561 22 3.77201 22 5.26259 22L20.7375 22C22.228 22 22.9733 22 23.5432 21.7142C24.045 21.4625 24.454 21.0599 24.7096 20.566C25 20.005 25 19.2713 25 17.804L25 5.19594C25 4.54402 25 4.03671 24.9745 3.625M1.02559 3.625C1.05752 3.11009 1.1293 2.74471 1.29065 2.43298C1.54631 1.93906 1.95396 1.53778 2.45573 1.28611C3.02616 1 3.77345 1 5.26693 1H20.7336C22.2271 1 22.9728 1 23.5432 1.28611C24.045 1.53778 24.454 1.93906 24.7096 2.43298C24.871 2.74471 24.9427 3.11009 24.9745 3.625M24.9745 3.625H25" stroke="currentColor" stroke-width="2" stroke-linecap="round" stroke-linejoin="round"/>
</svg>
