<svg width="26" height="26" viewBox="0 0 26 26" fill="none" xmlns="http://www.w3.org/2000/svg">
<path d="M13.3189 6.52194L1 18.8406V25L7.15944 25L19.4783 12.6813M13.3189 6.52194L17.7362 2.10468L17.7388 2.10206C18.3469 1.49401 18.6514 1.18944 19.0025 1.07537C19.3118 0.974878 19.645 0.974878 19.9542 1.07537C20.3051 1.18936 20.6093 1.49358 21.2165 2.10077L23.8956 4.77978C24.5054 5.38958 24.8104 5.69462 24.9246 6.04621C25.0251 6.35548 25.0251 6.68861 24.9246 6.99788C24.8105 7.34921 24.5059 7.6538 23.8969 8.26273L23.8956 8.26403L19.4783 12.6813M13.3189 6.52194L19.4783 12.6813" stroke="currentColor" stroke-width="2" stroke-linecap="round" stroke-linejoin="round"/>
</svg>
