<svg width="30" height="26" viewBox="0 0 30 26" fill="none" xmlns="http://www.w3.org/2000/svg">
<path d="M29 24.9999C29 22.2133 26.4028 19.8426 22.7778 18.9641M19.6667 25C19.6667 21.4654 15.488 18.6 10.3333 18.6C5.17868 18.6 1 21.4654 1 25M19.6667 13.8C23.1031 13.8 25.8889 10.9346 25.8889 7.4C25.8889 3.86538 23.1031 1 19.6667 1M10.3333 13.8C6.89689 13.8 4.11111 10.9346 4.11111 7.4C4.11111 3.86538 6.89689 1 10.3333 1C13.7698 1 16.5556 3.86538 16.5556 7.4C16.5556 10.9346 13.7698 13.8 10.3333 13.8Z" stroke="white" stroke-width="2" stroke-linecap="round" stroke-linejoin="round"/>
</svg>
