<svg width="26" height="26" viewBox="0 0 26 26" fill="none" xmlns="http://www.w3.org/2000/svg">
<path d="M25 20.5939V12.4466C25 11.6619 24.9993 11.2693 24.9019 10.9042C24.8155 10.5806 24.6737 10.2744 24.4819 9.99764C24.2653 9.68539 23.9643 9.42645 23.3611 8.90973L16.1611 2.74185C15.0412 1.78248 14.4813 1.30303 13.8511 1.12058C13.2958 0.959808 12.7039 0.959808 12.1486 1.12058C11.5189 1.30289 10.9598 1.78189 9.84154 2.73981L2.63916 8.90973C2.03596 9.42646 1.73506 9.68539 1.51855 9.99764C1.32669 10.2744 1.18382 10.5806 1.09746 10.9042C1 11.2693 1 11.6619 1 12.4466V20.5939C1 21.9624 1 22.6464 1.22836 23.1862C1.53284 23.9059 2.11648 24.4783 2.85156 24.7764C3.40288 25 4.10179 25 5.49961 25C6.89744 25 7.59712 25 8.14844 24.7764C8.88352 24.4783 9.467 23.906 9.77148 23.1863C9.99985 22.6466 10 21.9623 10 20.5938V19.1253C10 17.5032 11.3431 16.1882 13 16.1882C14.6569 16.1882 16 17.5032 16 19.1253V20.5938C16 21.9623 16 22.6466 16.2284 23.1863C16.5328 23.906 17.1165 24.4783 17.8516 24.7764C18.4029 25 19.1018 25 20.4996 25C21.8974 25 22.5971 25 23.1484 24.7764C23.8835 24.4783 24.467 23.9059 24.7715 23.1862C24.9998 22.6464 25 21.9624 25 20.5939Z" stroke="currentColor" stroke-width="2" stroke-linecap="round" stroke-linejoin="round"/>
</svg>
