<svg width="26" height="26" viewBox="0 0 26 26" fill="none" xmlns="http://www.w3.org/2000/svg">
<path d="M7.01302 23.4024C8.77501 24.4186 10.8194 25 12.9995 25C19.6269 25 25 19.6275 25 13C25 6.3726 19.6274 1 13 1C6.37258 1 1 6.3726 1 13C1 15.1802 1.58139 17.2246 2.59759 18.9866L2.60153 18.9934C2.6993 19.1629 2.74861 19.2484 2.77094 19.3292C2.79201 19.4054 2.79789 19.4739 2.7925 19.5528C2.7867 19.6375 2.75814 19.7254 2.69958 19.9011L1.67448 22.9764L1.67319 22.9804C1.4569 23.6293 1.34876 23.9537 1.42585 24.1699C1.49306 24.3584 1.64225 24.5071 1.83073 24.5743C2.04642 24.6513 2.36939 24.5436 3.0154 24.3283L3.02344 24.3253L6.09873 23.3002C6.27383 23.2418 6.36285 23.2122 6.44746 23.2064C6.52633 23.201 6.59437 23.2082 6.67057 23.2292C6.75158 23.2516 6.83711 23.3009 7.00751 23.3992L7.01302 23.4024Z" stroke="currentColor" stroke-width="2" stroke-linecap="round" stroke-linejoin="round"/>
</svg>
