<svg width="17" height="24" viewBox="0 0 17 24" fill="none" xmlns="http://www.w3.org/2000/svg">
<path d="M8.5 15.1579C7.4881 15.1579 6.62798 14.7895 5.91964 14.0526C5.21131 13.3158 4.85714 12.4211 4.85714 11.3684V3.78947C4.85714 2.73684 5.21131 1.84211 5.91964 1.10526C6.62798 0.368421 7.4881 0 8.5 0C9.5119 0 10.372 0.368421 11.0804 1.10526C11.7887 1.84211 12.1429 2.73684 12.1429 3.78947V11.3684C12.1429 12.4211 11.7887 13.3158 11.0804 14.0526C10.372 14.7895 9.5119 15.1579 8.5 15.1579ZM7.28571 24V20.1158C5.18095 19.8211 3.44048 18.8421 2.06429 17.1789C0.688095 15.5158 0 13.5789 0 11.3684H2.42857C2.42857 13.1158 3.02054 14.6053 4.20446 15.8368C5.38839 17.0684 6.82024 17.6842 8.5 17.6842C10.1798 17.6842 11.6116 17.0684 12.7955 15.8368C13.9795 14.6053 14.5714 13.1158 14.5714 11.3684H17C17 13.5789 16.3119 15.5158 14.9357 17.1789C13.5595 18.8421 11.819 19.8211 9.71429 20.1158V24H7.28571Z" fill="currentColor"/>
</svg>
