<svg width="26" height="26" viewBox="0 0 26 26" fill="none" xmlns="http://www.w3.org/2000/svg">
<path d="M13 17V13M13 13V9.00002M13 13H9M13 13H17M13.0002 25C10.82 25 8.77566 24.4186 7.01367 23.4024C6.8396 23.302 6.75245 23.2519 6.67057 23.2292C6.59437 23.2082 6.52633 23.201 6.44746 23.2064C6.36337 23.2122 6.2764 23.2412 6.10346 23.2988L3.02409 24.3253L3.02166 24.3264C2.37189 24.543 2.0464 24.6515 1.83008 24.5743C1.6416 24.5071 1.49306 24.3584 1.42585 24.1699C1.34876 23.9537 1.4569 23.6293 1.67319 22.9804L1.67448 22.9764L2.69958 19.9011L2.70201 19.8947C2.75915 19.7233 2.78808 19.6365 2.7938 19.5528C2.79919 19.4739 2.79201 19.4054 2.77094 19.3292C2.74861 19.2484 2.6993 19.1629 2.60153 18.9934L2.59759 18.9866C1.58139 17.2246 1 15.1802 1 13C1 6.3726 6.37258 1 13 1C19.6274 1 25 6.3726 25 13C25 19.6275 19.6276 25 13.0002 25Z" stroke="white" stroke-width="2" stroke-linecap="round" stroke-linejoin="round"/>
</svg>
