<svg width="25" height="26" viewBox="0 0 25 26" fill="none" xmlns="http://www.w3.org/2000/svg">
<path d="M4.57255 12.7879L13.8192 12.8391M21.3596 14.7887L4.72519 23.4777C3.23447 24.2564 2.48869 24.6459 1.9992 24.53C1.57462 24.4295 1.22499 24.1309 1.0605 23.7268C0.870834 23.2608 1.14101 22.4632 1.68185 20.8701L4.19468 13.4683C4.2805 13.2155 4.32302 13.0894 4.3405 12.96C4.35602 12.8451 4.3574 12.7289 4.34316 12.6138C4.32747 12.4871 4.28682 12.3629 4.20749 12.1205L1.77109 4.67426C1.24791 3.07528 0.986522 2.27551 1.18133 1.81165C1.35028 1.40938 1.70313 1.11404 2.1288 1.01823C2.61962 0.907749 3.36126 1.30515 4.84376 2.10053L21.381 10.973C22.5465 11.5983 23.1293 11.9112 23.3181 12.3251C23.4825 12.6855 23.4804 13.1 23.312 13.4586C23.1187 13.8701 22.5326 14.1762 21.3615 14.788L21.3596 14.7887Z" stroke="white" stroke-width="2" stroke-linecap="round" stroke-linejoin="round"/>
</svg>
