<svg width="27" height="26" viewBox="0 0 27 26" fill="none" xmlns="http://www.w3.org/2000/svg">
<path d="M23.9415 9.08347L23.4835 8.82416C23.4124 8.78389 23.3774 8.76368 23.3431 8.74274C23.0016 8.53452 22.7138 8.24683 22.5037 7.90265C22.4826 7.86801 22.4627 7.8317 22.4219 7.75992C22.3813 7.68823 22.3606 7.6519 22.3417 7.61594C22.1533 7.25786 22.0514 6.85881 22.0453 6.45265C22.0447 6.41182 22.0448 6.3701 22.0462 6.28716L22.0551 5.74586C22.0695 4.87965 22.0766 4.4452 21.9571 4.0553C21.8508 3.70898 21.6731 3.38999 21.4358 3.11929C21.1675 2.81329 20.7962 2.59499 20.0528 2.15893L19.4353 1.79673C18.694 1.36189 18.3232 1.1444 17.9296 1.06148C17.5814 0.988127 17.2221 0.991527 16.8751 1.0708C16.4836 1.16028 16.1174 1.38344 15.3855 1.82951L15.3814 1.83153L14.9389 2.1012C14.869 2.14384 14.8336 2.16534 14.7985 2.18518C14.4505 2.38211 14.062 2.49101 13.6641 2.50401C13.624 2.50532 13.5832 2.50532 13.5016 2.50532C13.4205 2.50532 13.378 2.50532 13.338 2.50401C12.9392 2.49095 12.5499 2.38147 12.2014 2.18372C12.1662 2.16379 12.1315 2.14212 12.0614 2.09928L11.6161 1.82718C10.8792 1.37689 10.5102 1.1514 10.1165 1.06148C9.76816 0.981926 9.4076 0.979724 9.05813 1.05402C8.66355 1.13792 8.29266 1.35702 7.55089 1.79524L7.5476 1.79673L6.93778 2.15699L6.93103 2.16119C6.19594 2.59546 5.82751 2.81312 5.56151 3.11787C5.32547 3.3883 5.14904 3.70679 5.04344 4.05219C4.92407 4.44262 4.93043 4.878 4.94482 5.7483L4.95375 6.28883C4.95511 6.37068 4.95745 6.41135 4.95687 6.45161C4.95095 6.8586 4.84769 7.25846 4.65872 7.61718C4.64003 7.65266 4.6199 7.68814 4.57969 7.759C4.53944 7.82991 4.51995 7.86517 4.49909 7.89939C4.2881 8.24542 3.99896 8.53479 3.65531 8.74336C3.62132 8.76399 3.5855 8.78383 3.51511 8.82353L3.06298 9.07857C2.31073 9.5029 1.93469 9.71526 1.66107 10.0174C1.41901 10.2848 1.23615 10.6019 1.12453 10.9472C0.998352 11.3376 0.998459 11.7754 1.00041 12.6508L1.00201 13.3663C1.00395 14.2359 1.00661 14.6704 1.13307 15.0581C1.24495 15.4011 1.42647 15.7164 1.66718 15.9821C1.93925 16.2825 2.31155 16.4935 3.0581 16.9162L3.5062 17.17C3.58246 17.2132 3.62083 17.2345 3.65761 17.257C3.99813 17.4657 4.28501 17.7543 4.4942 18.0983C4.5168 18.1355 4.5385 18.1741 4.58188 18.2512C4.62473 18.3274 4.64665 18.3655 4.66647 18.4037C4.84988 18.7572 4.94808 19.1499 4.95477 19.5496C4.95549 19.5928 4.95488 19.6364 4.95342 19.7242L4.94482 20.2429C4.93033 21.1162 4.92402 21.5534 5.04409 21.9449C5.15031 22.2912 5.32785 22.6102 5.56518 22.8809C5.83344 23.1869 6.20533 23.405 6.94877 23.8411L7.56614 24.2032C8.3075 24.6381 8.67804 24.8553 9.07162 24.9382C9.41981 25.0116 9.77934 25.0087 10.1263 24.9295C10.5184 24.8398 10.8858 24.6159 11.6198 24.1686L12.0622 23.8989C12.1322 23.8562 12.1677 23.8349 12.2027 23.815C12.5507 23.6181 12.9388 23.5086 13.3368 23.4956C13.3769 23.4943 13.4177 23.4943 13.4992 23.4943C13.581 23.4943 13.6218 23.4943 13.6619 23.4956C14.0608 23.5087 14.4512 23.6185 14.7997 23.8162C14.8304 23.8336 14.8611 23.8524 14.9151 23.8854L15.3854 24.1729C16.1224 24.6232 16.4906 24.848 16.8844 24.938C17.2327 25.0175 17.5936 25.0208 17.943 24.9465C18.3375 24.8626 18.7092 24.643 19.4505 24.2051L20.0695 23.8394C20.8051 23.4049 21.1739 23.187 21.44 22.8821C21.676 22.6117 21.8527 22.2933 21.9583 21.9479C22.0768 21.5603 22.0696 21.1283 22.0554 20.2706L22.0462 19.7112C22.0448 19.6293 22.0447 19.5886 22.0453 19.5483C22.0512 19.1413 22.1528 18.7412 22.3417 18.3825C22.3604 18.3471 22.3807 18.3113 22.4208 18.2407C22.461 18.1698 22.4818 18.1344 22.5027 18.1002C22.7137 17.7542 23.0031 17.4646 23.3468 17.256C23.3803 17.2356 23.4149 17.2161 23.4836 17.1774L23.486 17.1762L23.9381 16.9212C24.6903 16.4969 25.0671 16.2843 25.3407 15.9821C25.5828 15.7148 25.7654 15.3981 25.877 15.0528C26.0025 14.6647 26.0015 14.2295 25.9996 13.3643L25.9979 12.6334C25.996 11.7638 25.9949 11.3294 25.8685 10.9416C25.7566 10.5986 25.5741 10.2834 25.3334 10.0176C25.0615 9.71758 24.6887 9.50648 23.9436 9.08455L23.9415 9.08347Z" stroke="currentColor" stroke-width="2" stroke-linecap="round" stroke-linejoin="round"/>
<path d="M8.49845 13.0001C8.49845 15.812 10.7379 18.0915 13.5004 18.0915C16.2629 18.0915 18.5023 15.812 18.5023 13.0001C18.5023 10.1882 16.2629 7.90867 13.5004 7.90867C10.7379 7.90867 8.49845 10.1882 8.49845 13.0001Z" stroke="currentColor" stroke-width="2" stroke-linecap="round" stroke-linejoin="round"/>
</svg>
